<?xml version="1.0" encoding="utf-8"?>
<!-- Generator: Adobe Illustrator 25.0.1, SVG Export Plug-In . SVG Version: 6.00 Build 0)  -->
<svg version="1.0" id="Capa_1" xmlns="http://www.w3.org/2000/svg" xmlns:xlink="http://www.w3.org/1999/xlink" x="0px" y="0px"
	 viewBox="0 0 904 610" style="enable-background:new 0 0 904 610;" xml:space="preserve">
<g>
	<g>
		<path d="M408.7,484.6c-30.4,0-59-11.8-80.6-33.4c-21.5-21.5-33.4-50.1-33.4-80.6c0-30.4,11.9-59,33.4-80.6
			c21.5-21.5,50.1-33.4,80.6-33.4c5.7,0,11.5,0.4,17.1,1.3c3.7,0.6,6.4,3.7,6.4,7.4v56.9c0,2.4-1.2,4.7-3.1,6.1
			c-2,1.4-4.5,1.8-6.8,1c-4.4-1.5-9-2.2-13.6-2.2c-23.9,0-43.4,19.5-43.4,43.4s19.5,43.4,43.4,43.4c4.6,0,9.2-0.7,13.6-2.2
			c17.7-5.9,29.6-22.3,29.7-41v-238c0-4.1,3.4-7.5,7.5-7.5h55.6c4.1,0,7.5,3.4,7.5,7.5c0,43.6,35.5,79,79.1,79
			c4.1,0,7.5,3.4,7.5,7.5V275c0,4.1-3.4,7.5-7.5,7.5c-20.2,0-39.8-4-58.3-11.8c-7.2-3.1-14.2-6.7-20.8-10.8v111.3
			c-0.1,30.3-12,58.7-33.4,80.1c-17.4,17.4-39.3,28.5-63.4,32.1C420.2,484.2,414.4,484.6,408.7,484.6L408.7,484.6z M408.7,271.8
			c-26.4,0-51.3,10.3-69.9,29c-18.7,18.7-29,43.5-29,69.9s10.3,51.3,29,69.9c18.7,18.7,43.5,29,69.9,29c5,0,10-0.4,14.9-1.1
			c20.9-3.1,40-12.8,55.1-27.9c18.6-18.6,28.9-43.3,29-69.5V245.5c0-2.9,1.6-5.5,4.2-6.7c2.6-1.3,5.6-1,7.9,0.8
			c9.1,7,19,12.8,29.6,17.3c14.3,6.1,29.4,9.5,44.9,10.4v-40.6c-45.9-3.6-82.6-40.4-86.3-86.2h-41V371c-0.1,25.1-16.2,47.3-40,55.2
			c-6,2-12.1,3-18.4,3c-32.2,0-58.4-26.2-58.4-58.4s26.2-58.4,58.4-58.4c2.9,0,5.7,0.2,8.5,0.6v-40.8
			C414.4,271.9,411.5,271.8,408.7,271.8L408.7,271.8z"/>
	</g>
	<path d="M211,95v428.5c0,12.4,10.1,22.5,22.5,22.5h437c12.4,0,22.5-10.1,22.5-22.5V415.8c0-4.1,3.4-7.5,7.5-7.5s7.5,3.4,7.5,7.5
		v107.7c0,20.7-16.8,37.5-37.5,37.5h-437c-20.7,0-37.5-16.8-37.5-37.5V95c0-4.1,3.3-7.4,7.3-7.5C207.6,87.4,211,90.8,211,95z"/>
	<path d="M196,95.3v-8.8c0-20.7,16.8-37.5,37.5-37.5h437c20.7,0,37.5,16.8,37.5,37.5v279.8c0,4.1-3.4,7.5-7.5,7.5s-7.5-3.4-7.5-7.5
		V86.5c0-12.4-10.1-22.5-22.5-22.5h-437C221.1,64,211,74.1,211,86.5v8.8c0,4.1-3.4,7.5-7.5,7.5S196,99.4,196,95.3z"/>
</g>
</svg>
